<svg width="14" height="15" viewBox="0 0 14 15" fill="none" xmlns="http://www.w3.org/2000/svg">
<path d="M7.68539 0.708336C8.43539 0.710336 8.81605 0.714336 9.14472 0.723669L9.27405 0.728336C9.42339 0.733669 9.57072 0.740336 9.74872 0.748336C10.4581 0.781669 10.9421 0.893669 11.3667 1.05834C11.8067 1.22767 12.1774 1.457 12.5481 1.827C12.8872 2.16016 13.1495 2.56332 13.3167 3.00834C13.4814 3.433 13.5934 3.917 13.6267 4.627C13.6347 4.80434 13.6414 4.95167 13.6467 5.10167L13.6507 5.231C13.6607 5.559 13.6647 5.93967 13.6661 6.68967L13.6667 7.187V8.06034C13.6683 8.54661 13.6632 9.03287 13.6514 9.519L13.6474 9.64834C13.6421 9.79834 13.6354 9.94567 13.6274 10.123C13.5941 10.833 13.4807 11.3163 13.3167 11.7417C13.1495 12.1867 12.8872 12.5898 12.5481 12.923C12.2149 13.2621 11.8117 13.5245 11.3667 13.6917C10.9421 13.8563 10.4581 13.9683 9.74872 14.0017L9.27405 14.0217L9.14472 14.0257C8.81605 14.035 8.43539 14.0397 7.68539 14.041L7.18805 14.0417H6.31539C5.82889 14.0434 5.3424 14.0383 4.85605 14.0263L4.72672 14.0223C4.56846 14.0163 4.41024 14.0095 4.25205 14.0017C3.54272 13.9683 3.05872 13.8563 2.63339 13.6917C2.18861 13.5244 1.78568 13.2621 1.45272 12.923C1.11335 12.5899 0.850793 12.1867 0.683387 11.7417C0.51872 11.317 0.40672 10.833 0.373387 10.123L0.353387 9.64834L0.350054 9.519C0.337764 9.03288 0.332208 8.54661 0.333387 8.06034V6.68967C0.331542 6.2034 0.336431 5.71713 0.348054 5.231L0.35272 5.10167C0.358054 4.95167 0.36472 4.80434 0.37272 4.627C0.406054 3.917 0.518054 3.43367 0.68272 3.00834C0.850517 2.56313 1.11354 2.15996 1.45339 1.827C1.78616 1.48804 2.18885 1.22572 2.63339 1.05834C3.05872 0.893669 3.54205 0.781669 4.25205 0.748336C4.42939 0.740336 4.57739 0.733669 4.72672 0.728336L4.85605 0.724336C5.34218 0.712491 5.82845 0.707379 6.31472 0.709002L7.68539 0.708336ZM7.00005 4.04167C6.116 4.04167 5.26815 4.39286 4.64303 5.01798C4.01791 5.6431 3.66672 6.49095 3.66672 7.375C3.66672 8.25906 4.01791 9.1069 4.64303 9.73203C5.26815 10.3571 6.116 10.7083 7.00005 10.7083C7.88411 10.7083 8.73195 10.3571 9.35708 9.73203C9.9822 9.1069 10.3334 8.25906 10.3334 7.375C10.3334 6.49095 9.9822 5.6431 9.35708 5.01798C8.73195 4.39286 7.88411 4.04167 7.00005 4.04167ZM7.00005 5.375C7.2627 5.37496 7.52278 5.42665 7.76545 5.52712C8.00811 5.62759 8.22862 5.77487 8.41436 5.96055C8.60011 6.14624 8.74747 6.36669 8.84802 6.60933C8.94857 6.85196 9.00034 7.11203 9.00039 7.37467C9.00043 7.63731 8.94874 7.89739 8.84827 8.14006C8.7478 8.38273 8.60052 8.60323 8.41484 8.78898C8.22915 8.97473 8.0087 9.12208 7.76606 9.22263C7.52343 9.32318 7.26336 9.37496 7.00072 9.375C6.47029 9.375 5.96158 9.16429 5.58651 8.78922C5.21143 8.41414 5.00072 7.90544 5.00072 7.375C5.00072 6.84457 5.21143 6.33586 5.58651 5.96079C5.96158 5.58572 6.47029 5.375 7.00072 5.375M10.5007 3.04167C10.2797 3.04167 10.0677 3.12947 9.91146 3.28575C9.75518 3.44203 9.66739 3.65399 9.66739 3.875C9.66739 4.09602 9.75518 4.30798 9.91146 4.46426C10.0677 4.62054 10.2797 4.70834 10.5007 4.70834C10.7217 4.70834 10.9337 4.62054 11.09 4.46426C11.2463 4.30798 11.3341 4.09602 11.3341 3.875C11.3341 3.65399 11.2463 3.44203 11.09 3.28575C10.9337 3.12947 10.7217 3.04167 10.5007 3.04167Z" fill="white"/>
</svg>
