<svg width="14" height="15" viewBox="0 0 14 15" fill="none" xmlns="http://www.w3.org/2000/svg">
<path fill-rule="evenodd" clip-rule="evenodd" d="M2 0.375C1.46957 0.375 0.960859 0.585714 0.585786 0.960786C0.210714 1.33586 0 1.84457 0 2.375V12.375C0 12.9054 0.210714 13.4141 0.585786 13.7892C0.960859 14.1643 1.46957 14.375 2 14.375H12C12.5304 14.375 13.0391 14.1643 13.4142 13.7892C13.7893 13.4141 14 12.9054 14 12.375V2.375C14 1.84457 13.7893 1.33586 13.4142 0.960786C13.0391 0.585714 12.5304 0.375 12 0.375H2ZM3.102 4.672C3.41893 4.672 3.72289 4.5461 3.94699 4.32199C4.1711 4.09789 4.297 3.79393 4.297 3.477C4.297 3.16007 4.1711 2.85611 3.94699 2.63201C3.72289 2.4079 3.41893 2.282 3.102 2.282C2.78507 2.282 2.48111 2.4079 2.25701 2.63201C2.0329 2.85611 1.907 3.16007 1.907 3.477C1.907 3.79393 2.0329 4.09789 2.25701 4.32199C2.48111 4.5461 2.78507 4.672 3.102 4.672ZM4.102 12.188V5.609H2.102V12.188H4.102ZM5.43 5.609H7.43V6.49C7.725 6.028 8.373 5.406 9.578 5.406C11.016 5.406 11.797 6.359 11.797 8.172C11.797 8.259 11.805 8.656 11.805 8.656V12.187H9.805V8.657C9.805 8.172 9.703 7.219 8.625 7.219C7.546 7.219 7.455 8.417 7.43 9.201V12.187H5.43V5.609Z" fill="white"/>
</svg>
