<svg width="16" height="17" viewBox="0 0 16 17" fill="none" xmlns="http://www.w3.org/2000/svg">
<path fill-rule="evenodd" clip-rule="evenodd" d="M13.1847 3.32833C13.3495 3.25899 13.5298 3.23508 13.7069 3.25908C13.884 3.28308 14.0515 3.35411 14.1918 3.46479C14.3322 3.57547 14.4403 3.72174 14.505 3.88839C14.5696 4.05503 14.5884 4.23596 14.5594 4.41233L13.0474 13.5837C12.9007 14.4683 11.9301 14.9757 11.1187 14.535C10.4401 14.1663 9.43205 13.5983 8.52539 13.0057C8.07205 12.709 6.68339 11.759 6.85405 11.083C7.00072 10.505 9.33405 8.333 10.6674 7.04167C11.1907 6.53433 10.9521 6.24167 10.3341 6.70833C8.79939 7.867 6.33539 9.629 5.52072 10.125C4.80205 10.5623 4.42739 10.637 3.97939 10.5623C3.16205 10.4263 2.40405 10.2157 1.78539 9.959C0.949387 9.61233 0.990054 8.463 1.78472 8.12833L13.1847 3.32833Z" fill="white"/>
</svg>
