<svg width="16" height="17" viewBox="0 0 16 17" fill="none" xmlns="http://www.w3.org/2000/svg">
<path d="M6.6 0.375H5.7L5.1 2.675L4.5 0.375H3.5C3.7 0.975 3.9 1.475 4.1 2.075C4.4 2.875 4.6 3.575 4.6 3.975V6.375H5.5V3.975L6.6 0.375ZM9 4.875V3.375C9 2.875 8.9 2.575 8.7 2.275C8.5 1.975 8.2 1.875 7.8 1.875C7.4 1.875 7.1 2.075 6.9 2.375C6.7 2.575 6.6 2.875 6.6 3.375V4.975C6.6 5.475 6.7 5.775 6.9 5.975C7.1 6.275 7.4 6.375 7.8 6.375C8.2 6.375 8.5 6.175 8.7 5.875C8.9 5.775 9 5.375 9 4.875ZM8.2 5.075C8.2 5.475 8.1 5.675 7.8 5.675C7.5 5.675 7.4 5.475 7.4 5.075V3.175C7.4 2.775 7.5 2.575 7.8 2.575C8.1 2.575 8.2 2.775 8.2 3.175V5.075ZM12 6.375V1.875H11.2V5.275C11 5.575 10.9 5.675 10.7 5.675C10.6 5.675 10.5 5.575 10.5 5.475V1.875H9.7V5.375C9.7 5.675 9.7 5.875 9.8 6.075C9.8 6.275 10 6.375 10.3 6.375C10.6 6.375 10.9 6.175 11.2 5.875V6.375H12ZM12.4 10.875C12.1 10.875 12 11.075 12 11.475V11.875H12.8V11.475C12.8 11.075 12.7 10.875 12.4 10.875ZM9.5 10.875C9.4 10.875 9.2 10.975 9.1 11.075V13.775C9.2 13.875 9.4 13.975 9.5 13.975C9.7 13.975 9.8 13.775 9.8 13.375V11.475C9.8 11.075 9.7 10.875 9.5 10.875Z" fill="white"/>
<path d="M14.4 8.675C14.2 7.975 13.6 7.375 13 7.375C11.4 7.175 9.70003 7.175 8.00003 7.175C6.30002 7.175 4.70002 7.175 3.00002 7.375C2.40002 7.375 1.80002 7.975 1.60002 8.675C1.40002 9.675 1.40002 10.775 1.40002 11.775C1.40002 12.775 1.40002 13.875 1.60002 14.875C1.80002 15.575 2.30002 16.075 3.00002 16.175C4.70002 16.375 6.30002 16.375 8.00003 16.375C9.70003 16.375 11.3 16.375 13 16.175C13.7 16.075 14.3 15.575 14.4 14.875C14.6 13.875 14.6 12.775 14.6 11.775C14.6 10.775 14.6 9.675 14.4 8.675ZM5.20002 9.575H4.20002V14.675H3.30002V9.575H2.40002V8.675H5.20002V9.575ZM7.60003 14.675H6.80002V14.175C6.50003 14.575 6.20003 14.675 5.90002 14.675C5.60002 14.675 5.50002 14.575 5.40002 14.375C5.40002 14.275 5.30002 14.075 5.30002 13.675V10.175H6.10002V13.675C6.10002 13.775 6.20003 13.875 6.30002 13.875C6.50003 13.875 6.60003 13.775 6.80002 13.475V10.175H7.60003V14.675ZM10.6 13.275C10.6 13.675 10.6 13.975 10.5 14.175C10.4 14.475 10.2 14.675 9.90003 14.675C9.60003 14.675 9.30003 14.475 9.10003 14.175V14.575H8.30003V8.675H9.10003V10.575C9.40003 10.275 9.60003 10.075 9.90003 10.075C10.2 10.075 10.4 10.275 10.5 10.575C10.6 10.775 10.6 11.075 10.6 11.475V13.275ZM13.6 12.575H12V13.375C12 13.775 12.1 13.975 12.4 13.975C12.6 13.975 12.7 13.875 12.8 13.675V13.175H13.6V13.775C13.6 13.975 13.5 14.075 13.4 14.275C13.2 14.575 12.9 14.775 12.4 14.775C12 14.775 11.7 14.575 11.4 14.275C11.2 14.075 11.1 13.675 11.1 13.275V11.775C11.1 11.275 11.2 10.975 11.3 10.775C11.5 10.475 11.8 10.275 12.3 10.275C12.7 10.275 13 10.475 13.2 10.775C13.4 10.975 13.4 11.375 13.4 11.775V12.575H13.6Z" fill="white"/>
</svg>
